{
    "asset" : {
        "generator" : "Khronos glTF Blender I/O v3.3.32",
        "version" : "2.0"
    },
    "extensionsUsed" : [
        "KHR_materials_transmission",
        "KHR_materials_ior"
    ],
    "scene" : 0,
    "scenes" : [
        {
            "name" : "Scene",
            "nodes" : [
                0,
                1,
                2,
                3
            ]
        }
    ],
    "nodes" : [
        {
            "mesh" : 0,
            "name" : "Cylinder",
            "translation" : [
                -0.0008798353374004364,
                1.0003981590270996,
                -0.48292988538742065
            ]
        },
        {
            "mesh" : 1,
            "name" : "Sphere",
            "scale" : [
                0.299506276845932,
                0.299506276845932,
                0.299506276845932
            ],
            "translation" : [
                -0.020523954182863235,
                0.45389628410339355,
                -2.4925267696380615
            ]
        },
        {
            "mesh" : 2,
            "name" : "Tutup",
            "scale" : [
                0.2836744785308838,
                0.2836744785308838,
                0.2836744785308838
            ],
            "translation" : [
                0,
                1.282195806503296,
                -1.911818265914917
            ]
        },
        {
            "name" : "Rope"
        }
    ],
    "materials" : [
        {
            "alphaMode" : "BLEND",
            "doubleSided" : true,
            "extensions" : {
                "KHR_materials_transmission" : {
                    "transmissionFactor" : 1
                },
                "KHR_materials_ior" : {
                    "ior" : 1.4500000476837158
                }
            },
            "name" : "Glass",
            "pbrMetallicRoughness" : {
                "baseColorFactor" : [
                    0.800000011920929,
                    0.800000011920929,
                    0.800000011920929,
                    1
                ],
                "metallicFactor" : 0,
                "roughnessFactor" : 0
            }
        },
        {
            "doubleSided" : true,
            "name" : "Material.003",
            "pbrMetallicRoughness" : {
                "baseColorFactor" : [
                    0.46720030903816223,
                    0.46720030903816223,
                    0.46720030903816223,
                    1
                ],
                "metallicFactor" : 0,
                "roughnessFactor" : 0.5
            }
        }
    ],
    "meshes" : [
        {
            "name" : "Cylinder",
            "primitives" : [
                {
                    "attributes" : {
                        "POSITION" : 0,
                        "NORMAL" : 1,
                        "TEXCOORD_0" : 2
                    },
                    "indices" : 3,
                    "material" : 0
                }
            ]
        },
        {
            "name" : "Sphere",
            "primitives" : [
                {
                    "attributes" : {
                        "POSITION" : 4,
                        "NORMAL" : 5,
                        "TEXCOORD_0" : 6
                    },
                    "indices" : 7,
                    "material" : 1
                }
            ]
        },
        {
            "name" : "Sphere.001",
            "primitives" : [
                {
                    "attributes" : {
                        "POSITION" : 8,
                        "NORMAL" : 9,
                        "TEXCOORD_0" : 10
                    },
                    "indices" : 11,
                    "material" : 1
                }
            ]
        }
    ],
    "accessors" : [
        {
            "bufferView" : 0,
            "componentType" : 5126,
            "count" : 823,
            "max" : [
                1.2893097400665283,
                1.062701940536499,
                1.7699618339538574
            ],
            "min" : [
                -1.2893095016479492,
                -1,
                -0.8086572885513306
            ],
            "type" : "VEC3"
        },
        {
            "bufferView" : 1,
            "componentType" : 5126,
            "count" : 823,
            "type" : "VEC3"
        },
        {
            "bufferView" : 2,
            "componentType" : 5126,
            "count" : 823,
            "type" : "VEC2"
        },
        {
            "bufferView" : 3,
            "componentType" : 5123,
            "count" : 4404,
            "type" : "SCALAR"
        },
        {
            "bufferView" : 4,
            "componentType" : 5126,
            "count" : 495,
            "max" : [
                1.1627861261367798,
                6.047516822814941,
                9.414639472961426
            ],
            "min" : [
                -1.031005859375,
                2.863053798675537,
                7.220846652984619
            ],
            "type" : "VEC3"
        },
        {
            "bufferView" : 5,
            "componentType" : 5126,
            "count" : 495,
            "type" : "VEC3"
        },
        {
            "bufferView" : 6,
            "componentType" : 5126,
            "count" : 495,
            "type" : "VEC2"
        },
        {
            "bufferView" : 7,
            "componentType" : 5123,
            "count" : 2688,
            "type" : "SCALAR"
        },
        {
            "bufferView" : 8,
            "componentType" : 5126,
            "count" : 329,
            "max" : [
                1.402394413948059,
                -0.9888337850570679,
                1.3708014488220215
            ],
            "min" : [
                -1.4023936986923218,
                -4.371861457824707,
                -1.4339876174926758
            ],
            "type" : "VEC3"
        },
        {
            "bufferView" : 9,
            "componentType" : 5126,
            "count" : 329,
            "type" : "VEC3"
        },
        {
            "bufferView" : 10,
            "componentType" : 5126,
            "count" : 329,
            "type" : "VEC2"
        },
        {
            "bufferView" : 11,
            "componentType" : 5123,
            "count" : 1632,
            "type" : "SCALAR"
        }
    ],
    "bufferViews" : [
        {
            "buffer" : 0,
            "byteLength" : 9876,
            "byteOffset" : 0,
            "target" : 34962
        },
        {
            "buffer" : 0,
            "byteLength" : 9876,
            "byteOffset" : 9876,
            "target" : 34962
        },
        {
            "buffer" : 0,
            "byteLength" : 6584,
            "byteOffset" : 19752,
            "target" : 34962
        },
        {
            "buffer" : 0,
            "byteLength" : 8808,
            "byteOffset" : 26336,
            "target" : 34963
        },
        {
            "buffer" : 0,
            "byteLength" : 5940,
            "byteOffset" : 35144,
            "target" : 34962
        },
        {
            "buffer" : 0,
            "byteLength" : 5940,
            "byteOffset" : 41084,
            "target" : 34962
        },
        {
            "buffer" : 0,
            "byteLength" : 3960,
            "byteOffset" : 47024,
            "target" : 34962
        },
        {
            "buffer" : 0,
            "byteLength" : 5376,
            "byteOffset" : 50984,
            "target" : 34963
        },
        {
            "buffer" : 0,
            "byteLength" : 3948,
            "byteOffset" : 56360,
            "target" : 34962
        },
        {
            "buffer" : 0,
            "byteLength" : 3948,
            "byteOffset" : 60308,
            "target" : 34962
        },
        {
            "buffer" : 0,
            "byteLength" : 2632,
            "byteOffset" : 64256,
            "target" : 34962
        },
        {
            "buffer" : 0,
            "byteLength" : 3264,
            "byteOffset" : 66888,
            "target" : 34963
        }
    ],
    "buffers" : [
        {
            "byteLength" : 70152,
            "uri" : "data:application/octet-stream;base64,"
        }
    ]
}
